<svg width="63" height="63" viewBox="0 0 63 63" fill="none" xmlns="http://www.w3.org/2000/svg">
<path fill-rule="evenodd" clip-rule="evenodd" d="M44.625 7.875C41.8402 7.875 39.1695 8.98125 37.2004 10.9504C35.2312 12.9195 34.125 15.5902 34.125 18.375C34.125 21.1598 35.2312 23.8305 37.2004 25.7996C39.1695 27.7688 41.8402 28.875 44.625 28.875C47.4098 28.875 50.0805 27.7688 52.0496 25.7996C54.0187 23.8305 55.125 21.1598 55.125 18.375C55.125 15.5902 54.0187 12.9195 52.0496 10.9504C50.0805 8.98125 47.4098 7.875 44.625 7.875ZM7.875 44.625C7.875 41.8402 8.98125 39.1695 10.9504 37.2004C12.9195 35.2312 15.5902 34.125 18.375 34.125C21.1598 34.125 23.8305 35.2312 25.7996 37.2004C27.7688 39.1695 28.875 41.8402 28.875 44.625C28.875 47.4098 27.7688 50.0805 25.7996 52.0496C23.8305 54.0187 21.1598 55.125 18.375 55.125C15.5902 55.125 12.9195 54.0187 10.9504 52.0496C8.98125 50.0805 7.875 47.4098 7.875 44.625ZM34.125 36.75C34.125 36.0538 34.4016 35.3861 34.8938 34.8938C35.3861 34.4016 36.0538 34.125 36.75 34.125H52.5C53.1962 34.125 53.8639 34.4016 54.3562 34.8938C54.8484 35.3861 55.125 36.0538 55.125 36.75V49.875C55.125 51.2674 54.5719 52.6027 53.5873 53.5873C52.6027 54.5719 51.2674 55.125 49.875 55.125H39.375C37.9826 55.125 36.6473 54.5719 35.6627 53.5873C34.6781 52.6027 34.125 51.2674 34.125 49.875V36.75ZM7.875 10.5C7.875 9.80381 8.15156 9.13613 8.64384 8.64384C9.13613 8.15156 9.80381 7.875 10.5 7.875H26.25C26.9462 7.875 27.6139 8.15156 28.1062 8.64384C28.5984 9.13613 28.875 9.80381 28.875 10.5V23.625C28.875 25.0174 28.3219 26.3527 27.3373 27.3373C26.3527 28.3219 25.0174 28.875 23.625 28.875H13.125C11.7326 28.875 10.3973 28.3219 9.41269 27.3373C8.42812 26.3527 7.875 25.0174 7.875 23.625V10.5Z" fill="#089BAA"/>
</svg>
