<svg width="50" height="54" viewBox="0 0 50 54" fill="none" xmlns="http://www.w3.org/2000/svg">
<path fill-rule="evenodd" clip-rule="evenodd" d="M21.1601 2.205C21.6075 1.66825 22.1624 1.23125 22.7891 0.922164C23.4158 0.613081 24.1003 0.438785 24.7985 0.410518C25.4967 0.382252 26.193 0.500641 26.8426 0.758052C27.4923 1.01546 28.0807 1.40618 28.5701 1.905L28.8401 2.205L38.6701 14H46.1326C46.6572 13.9989 47.1762 14.1086 47.6555 14.322C48.1348 14.5354 48.5636 14.8476 48.9138 15.2382C49.2641 15.6288 49.5279 16.089 49.6879 16.5886C49.848 17.0883 49.9007 17.6161 49.8426 18.1375L49.6126 20.0525L49.3626 21.9025L49.1576 23.2875L48.9201 24.775L48.6501 26.3375L48.3451 27.9575L48.0051 29.61C47.8251 30.4433 47.6317 31.2758 47.4251 32.1075C46.8717 34.3026 46.1769 36.4596 45.3451 38.565L44.7926 39.915L44.2576 41.135L43.7526 42.22L43.5176 42.705L42.8951 43.93C42.0951 45.455 40.5851 46.355 38.9876 46.485L38.5876 46.5H11.3876C10.5136 46.5065 9.65419 46.2756 8.90125 45.8317C8.14831 45.3879 7.53007 44.7479 7.11255 43.98L6.53255 42.855L6.08255 41.93L5.84505 41.4175L5.34505 40.295C4.2033 37.6438 3.27697 34.9049 2.57505 32.105C2.43933 31.5614 2.30932 31.0163 2.18505 30.47L1.83005 28.85L1.51255 27.265L1.23255 25.7325L0.982553 24.265L0.765053 22.88L0.580053 21.5975L0.355053 19.89L0.190053 18.5L0.147553 18.1175C0.0958393 17.6263 0.14231 17.1298 0.284261 16.6568C0.426213 16.1838 0.660811 15.7437 0.974408 15.3621C1.28801 14.9806 1.67434 14.6653 2.11094 14.4344C2.54754 14.2036 3.02568 14.0618 3.51755 14.0175L3.85755 14H11.3301L21.1601 2.205ZM19.9026 25.805C19.7334 25.2151 19.3533 24.7081 18.8345 24.3804C18.3157 24.0527 17.6945 23.9272 17.0892 24.0279C16.4839 24.1286 15.9367 24.4484 15.552 24.9263C15.1672 25.4043 14.9716 26.0072 15.0026 26.62L15.0351 26.91L16.2851 34.41L16.3476 34.695C16.5167 35.2849 16.8968 35.7919 17.4156 36.1196C17.9344 36.4473 18.5556 36.5728 19.1609 36.4721C19.7662 36.3714 20.3134 36.0516 20.6981 35.5736C21.0829 35.0957 21.2785 34.4928 21.2476 33.88L21.2151 33.59L19.9651 26.09L19.9026 25.805ZM32.9101 24.035C32.3058 23.9342 31.6856 24.0588 31.1672 24.3851C30.6487 24.7113 30.2681 25.2166 30.0976 25.805L30.0351 26.09L28.7851 33.59C28.6807 34.219 28.8206 34.8641 29.1762 35.3933C29.5318 35.9226 30.0761 36.296 30.6979 36.4371C31.3197 36.5783 31.9719 36.4765 32.5211 36.1527C33.0703 35.8289 33.4751 35.3074 33.6526 34.695L33.7151 34.41L34.9651 26.91C35.0735 26.2563 34.9179 25.5863 34.5326 25.0472C34.1473 24.5081 33.5637 24.144 32.9101 24.035ZM25.0001 5.405L17.8376 14H32.1626L25.0001 5.405Z" fill="#089BAA"/>
</svg>
