<svg width="51" height="51" viewBox="0 0 51 51" fill="none" xmlns="http://www.w3.org/2000/svg">
<path d="M25.5 44.625C39.5848 44.625 51 35.3514 51 23.9062C51 12.4611 39.5848 3.1875 25.5 3.1875C11.4153 3.1875 4.81294e-05 12.4611 4.81294e-05 23.9062C4.81294e-05 28.3986 1.76313 32.5523 4.75142 35.949C4.56216 38.3895 3.61587 40.5609 2.61977 42.2145C2.07192 43.1309 1.51411 43.868 1.10571 44.366C0.896533 44.615 0.737157 44.8043 0.617626 44.9338C0.557861 44.9936 0.518017 45.0434 0.488134 45.0732L0.458251 45.1031C4.81317e-05 45.5613 -0.129444 46.2387 0.119579 46.8363C0.368603 47.434 0.946337 47.8225 1.5938 47.8225C4.45259 47.8225 7.3313 46.9359 9.72192 45.9C12.003 44.9039 13.9454 43.7186 15.1307 42.852C18.2983 43.9975 21.8045 44.635 25.5 44.635V44.625ZM22.3125 15.9375C22.3125 15.0609 23.0297 14.3438 23.9063 14.3438H27.0938C27.9704 14.3438 28.6875 15.0609 28.6875 15.9375V20.7188H33.4688C34.3454 20.7188 35.0625 21.4359 35.0625 22.3125V25.5C35.0625 26.3766 34.3454 27.0938 33.4688 27.0938H28.6875V31.875C28.6875 32.7516 27.9704 33.4688 27.0938 33.4688H23.9063C23.0297 33.4688 22.3125 32.7516 22.3125 31.875V27.0938H17.5313C16.6547 27.0938 15.9375 26.3766 15.9375 25.5V22.3125C15.9375 21.4359 16.6547 20.7188 17.5313 20.7188H22.3125V15.9375Z" fill="#089BAA"/>
</svg>
