<svg width="48" height="48" viewBox="0 0 48 48" fill="none" xmlns="http://www.w3.org/2000/svg">
<path d="M49 29H47.42L46.86 28.46C48.8879 26.1081 50.0024 23.1054 50 20C50 17.4288 49.2376 14.9154 47.8091 12.7776C46.3807 10.6398 44.3503 8.97351 41.9749 7.98957C39.5995 7.00563 36.9856 6.74819 34.4638 7.2498C31.9421 7.75141 29.6257 8.98953 27.8076 10.8076C25.9895 12.6257 24.7514 14.9421 24.2498 17.4638C23.7482 19.9856 24.0056 22.5995 24.9896 24.9749C25.9735 27.3503 27.6398 29.3807 29.7776 30.8091C31.9154 32.2376 34.4288 33 37 33C40.22 33 43.18 31.82 45.46 29.86L46 30.42V32L56 41.98L58.98 39L49 29ZM37 29C32.02 29 28 24.98 28 20C28 15.02 32.02 11 37 11C41.98 11 46 15.02 46 20C46 24.98 41.98 29 37 29Z" fill="#089BAA"/>
</svg>
