<svg width="106" height="87" viewBox="0 0 106 87" fill="none" xmlns="http://www.w3.org/2000/svg">
<path d="M52.9997 39.875V61.625M39.7497 50.75H66.2497M97.1663 68.875C97.1663 70.7978 96.2357 72.6419 94.5791 74.0015C92.9225 75.3612 90.6758 76.125 88.333 76.125H17.6663C15.3236 76.125 13.0768 75.3612 11.4202 74.0015C9.76366 72.6419 8.83301 70.7978 8.83301 68.875V18.125C8.83301 16.2022 9.76366 14.3581 11.4202 12.9985C13.0768 11.6388 15.3236 10.875 17.6663 10.875H39.7497L48.583 21.75H88.333C90.6758 21.75 92.9225 22.5138 94.5791 23.8735C96.2357 25.2331 97.1663 27.0772 97.1663 29V68.875Z" stroke="#2C6975" stroke-opacity="0.5" stroke-width="4" stroke-linecap="round" stroke-linejoin="round"/>
</svg>
