<svg width="15" height="14" viewBox="0 0 15 14" fill="none" xmlns="http://www.w3.org/2000/svg">
<path d="M2.64702 3.29443H1.76468C1.29666 3.29443 0.847805 3.46796 0.516863 3.77684C0.185921 4.08572 0 4.50465 0 4.94147V12.3531C0 12.79 0.185921 13.2089 0.516863 13.5178C0.847805 13.8266 1.29666 14.0002 1.76468 14.0002H9.70575C10.1738 14.0002 10.6226 13.8266 10.9536 13.5178C11.2845 13.2089 11.4704 12.79 11.4704 12.3531V11.5296" stroke="#284B63" stroke-width="2" stroke-linecap="round" stroke-linejoin="round"/>
<path d="M10.5885 1.64712L13.2355 4.11768M14.4576 2.9524C14.8051 2.62806 15.0003 2.18816 15.0003 1.72948C15.0003 1.27079 14.8051 0.830891 14.4576 0.506552C14.1101 0.182212 13.6387 5.91924e-09 13.1473 0C12.6558 -5.91924e-09 12.1845 0.182212 11.837 0.506552L4.41211 7.41175V9.8823H7.05913L14.4576 2.9524Z" stroke="#284B63" stroke-width="2" stroke-linecap="round" stroke-linejoin="round"/>
</svg>
