<svg width="13" height="12" viewBox="0 0 13 12" fill="none" xmlns="http://www.w3.org/2000/svg">
<path d="M12 2.72727L11.5833 10.4596C11.5609 10.8764 11.3933 11.268 11.1148 11.5544C10.8363 11.8408 10.468 12.0002 10.0853 12H2.91467C2.53198 12.0002 2.1637 11.8408 1.88522 11.5544C1.60674 11.268 1.43912 10.8764 1.41667 10.4596L1 2.72727M5.16667 5.45455H7.83333M0.75 2.72727H12.25C12.664 2.72727 13 2.36073 13 1.90909V0.818182C13 0.366545 12.664 0 12.25 0H0.75C0.336 0 0 0.366545 0 0.818182V1.90909C0 2.36073 0.336 2.72727 0.75 2.72727Z" stroke="white" stroke-width="1.5" stroke-linecap="round" stroke-linejoin="round"/>
</svg>
