<svg width="14" height="18" viewBox="0 0 14 18" fill="none" xmlns="http://www.w3.org/2000/svg">
<path d="M4.616 14.5C4.15534 14.5 3.771 14.346 3.463 14.038C3.155 13.73 3.00067 13.3457 3 12.885V2.115C3 1.655 3.15434 1.27067 3.463 0.962002C3.77167 0.653335 4.156 0.499335 4.616 0.500002H12.385C12.845 0.500002 13.2293 0.654002 13.538 0.962002C13.8467 1.27 14.0007 1.65434 14 2.115V12.885C14 13.345 13.846 13.729 13.538 14.037C13.23 14.345 12.8453 14.4993 12.384 14.5H4.616ZM4.616 13.5H12.385C12.5383 13.5 12.6793 13.436 12.808 13.308C12.9367 13.18 13.0007 13.039 13 12.885V2.115C13 1.96167 12.936 1.82067 12.808 1.692C12.68 1.56334 12.5387 1.49934 12.384 1.5H4.616C4.462 1.5 4.32067 1.564 4.192 1.692C4.06334 1.82 3.99934 1.961 4 2.115V12.885C4 13.0383 4.064 13.1793 4.192 13.308C4.32 13.4367 4.461 13.5007 4.615 13.5M1.615 17.5C1.155 17.5 0.770669 17.346 0.462002 17.038C0.153335 16.73 -0.000664511 16.3457 2.15517e-06 15.885V4.115H1V15.885C1 16.0383 1.064 16.1793 1.192 16.308C1.32 16.4367 1.461 16.5007 1.615 16.5H10.385V17.5H1.615Z" fill="black"/>
</svg>
