<svg width="16" height="12" viewBox="0 0 16 12" fill="none" xmlns="http://www.w3.org/2000/svg">
<path d="M0 1.54688C0 1.05525 0.399 0.65625 0.890625 0.65625H5.64063C6.13225 0.65625 6.53125 1.05525 6.53125 1.54688V4.51563C6.53125 5.00725 6.13225 5.40625 5.64063 5.40625H0.890625C0.654417 5.40625 0.427883 5.31242 0.260858 5.14539C0.0938335 4.97837 0 4.75183 0 4.51563V1.54688ZM9.5 2.73438C9.5 2.24275 9.899 1.84375 10.3906 1.84375H14.5469C15.0385 1.84375 15.4375 2.24275 15.4375 2.73438V9.26563C15.4375 9.75725 15.0385 10.1563 14.5469 10.1563H10.3906C10.1544 10.1563 9.92788 10.0624 9.76086 9.89539C9.59383 9.72837 9.5 9.50183 9.5 9.26563V2.73438ZM1.1875 8.67188C1.1875 8.18025 1.5865 7.78125 2.07813 7.78125H6.23438C6.726 7.78125 7.125 8.18025 7.125 8.67188V10.4531C7.125 10.9448 6.726 11.3438 6.23438 11.3438H2.07813C1.84192 11.3438 1.61538 11.2499 1.44836 11.0829C1.28133 10.9159 1.1875 10.6893 1.1875 10.4531V8.67188Z" stroke="#284B63" stroke-width="1.5" stroke-linecap="round" stroke-linejoin="round"/>
</svg>
