<svg width="14" height="14" viewBox="0 0 14 14" fill="none" xmlns="http://www.w3.org/2000/svg">
<path d="M9.77925 5.01108H13.5233L11.1375 2.62383C10.3694 1.85573 9.41265 1.30337 8.36341 1.02228C7.31416 0.74119 6.20941 0.741272 5.1602 1.02252C4.111 1.30377 3.15432 1.85627 2.38635 2.62448C1.61838 3.39269 1.06617 4.34954 0.78525 5.39883M0.000749946 12.7331V8.98908M0.000749946 8.98908H3.74475M0.000749946 8.98908L2.38575 11.3763C3.15384 12.1444 4.1106 12.6968 5.15984 12.9779C6.20909 13.259 7.31384 13.2589 8.36305 12.9776C9.41225 12.6964 10.3689 12.1439 11.1369 11.3757C11.9049 10.6075 12.4571 9.65062 12.738 8.60133M13.5233 1.26708V5.00958" stroke="#284B63" stroke-width="1.5" stroke-linecap="round" stroke-linejoin="round"/>
</svg>
